<svg xmlns="http://www.w3.org/2000/svg" xmlns:xlink="http://www.w3.org/1999/xlink" width="18" height="18" viewBox="0 0 18 18">
  <defs>
    <clipPath id="clip-icon">
      <rect width="18" height="18"/>
    </clipPath>
  </defs>
  <g id="icon-facebook" clip-path="url(#clip-icon)">
    <path id="Tracé" d="M37.6,25.6H26.8a1.2,1.2,0,0,0-1.2,1.2V37.6a1.2,1.2,0,0,0,1.2,1.2h6V33.4H31V31.6h1.8v-.967c0-1.83.892-2.633,2.413-2.633a8.806,8.806,0,0,1,1.3.079V29.8H35.471c-.646,0-.871.341-.871,1.031V31.6h1.892l-.257,1.8H34.6v5.4h3a1.2,1.2,0,0,0,1.2-1.2V26.8A1.2,1.2,0,0,0,37.6,25.6Z" transform="translate(-23.2 -23.2)" fill="#fff"/>
  </g>
</svg>
