<svg xmlns="http://www.w3.org/2000/svg" xmlns:xlink="http://www.w3.org/1999/xlink" width="18" height="18" viewBox="0 0 18 18">
  <defs>
    <clipPath id="clip-icon">
      <rect width="18" height="18"/>
    </clipPath>
  </defs>
  <g id="icon-instagram" clip-path="url(#clip-icon)">
    <path id="Tracé" d="M23.4,19.2a4.205,4.205,0,0,0-4.2,4.2v6a4.205,4.205,0,0,0,4.2,4.2h6a4.2,4.2,0,0,0,4.2-4.2v-6a4.2,4.2,0,0,0-4.2-4.2Zm7.2,2.4a.6.6,0,1,1-.6.6A.6.6,0,0,1,30.6,21.6Zm-4.2,1.2a3.6,3.6,0,1,1-3.6,3.6A3.6,3.6,0,0,1,26.4,22.8Zm0,1.2a2.4,2.4,0,1,0,2.4,2.4A2.4,2.4,0,0,0,26.4,24Z" transform="translate(-17.4 -17.4)" fill="#fff"/>
  </g>
</svg>
